<mxfile host="app.diagrams.net" modified="2023-12-03T15:08:04.037Z" agent="Mozilla/5.0 (Windows NT 10.0; Win64; x64) AppleWebKit/537.36 (KHTML, like Gecko) Chrome/119.0.0.0 Safari/537.36" etag="hfHHGTuwjLEvdxLdJMZK" version="22.1.5" type="device">
  <diagram name="Сторінка-1" id="Mn78-KuyhaQSYaasn2v9">
    <mxGraphModel dx="1235" dy="675" grid="1" gridSize="10" guides="1" tooltips="1" connect="1" arrows="1" fold="1" page="1" pageScale="1" pageWidth="827" pageHeight="1169" math="0" shadow="0">
      <root>
        <mxCell id="0" />
        <mxCell id="1" parent="0" />
        <mxCell id="-33Kf1fEAtNz3lLiCqJE-1" value="Local Network" style="rounded=0;whiteSpace=wrap;html=1;fillColor=#dae8fc;strokeColor=#6c8ebf;" vertex="1" parent="1">
          <mxGeometry x="270" y="270" width="120" height="40" as="geometry" />
        </mxCell>
        <mxCell id="-33Kf1fEAtNz3lLiCqJE-2" value="" style="ellipse;whiteSpace=wrap;html=1;fillColor=#dae8fc;strokeColor=#6c8ebf;" vertex="1" parent="1">
          <mxGeometry x="310" y="230" width="120" height="40" as="geometry" />
        </mxCell>
        <mxCell id="-33Kf1fEAtNz3lLiCqJE-3" value="" style="ellipse;whiteSpace=wrap;html=1;fillColor=#dae8fc;strokeColor=#6c8ebf;" vertex="1" parent="1">
          <mxGeometry x="310" y="190" width="120" height="40" as="geometry" />
        </mxCell>
        <mxCell id="-33Kf1fEAtNz3lLiCqJE-4" value="AR Glasses" style="rounded=0;whiteSpace=wrap;html=1;fillColor=#fff2cc;strokeColor=#d6b656;" vertex="1" parent="1">
          <mxGeometry x="620" y="110" width="120" height="40" as="geometry" />
        </mxCell>
        <mxCell id="-33Kf1fEAtNz3lLiCqJE-5" value="" style="ellipse;whiteSpace=wrap;html=1;fillColor=#fff2cc;strokeColor=#d6b656;" vertex="1" parent="1">
          <mxGeometry x="660" y="70" width="120" height="40" as="geometry" />
        </mxCell>
        <mxCell id="-33Kf1fEAtNz3lLiCqJE-6" value="" style="ellipse;whiteSpace=wrap;html=1;fillColor=#fff2cc;strokeColor=#d6b656;" vertex="1" parent="1">
          <mxGeometry x="660" y="30" width="120" height="40" as="geometry" />
        </mxCell>
        <mxCell id="-33Kf1fEAtNz3lLiCqJE-7" value="AR Glasses" style="rounded=0;whiteSpace=wrap;html=1;fillColor=#fff2cc;strokeColor=#d6b656;" vertex="1" parent="1">
          <mxGeometry x="620" y="270" width="120" height="40" as="geometry" />
        </mxCell>
        <mxCell id="-33Kf1fEAtNz3lLiCqJE-8" value="" style="ellipse;whiteSpace=wrap;html=1;fillColor=#fff2cc;strokeColor=#d6b656;" vertex="1" parent="1">
          <mxGeometry x="660" y="230" width="120" height="40" as="geometry" />
        </mxCell>
        <mxCell id="-33Kf1fEAtNz3lLiCqJE-9" value="" style="ellipse;whiteSpace=wrap;html=1;fillColor=#fff2cc;strokeColor=#d6b656;" vertex="1" parent="1">
          <mxGeometry x="660" y="190" width="120" height="40" as="geometry" />
        </mxCell>
        <mxCell id="-33Kf1fEAtNz3lLiCqJE-10" value="AR Glasses" style="rounded=0;whiteSpace=wrap;html=1;fillColor=#fff2cc;strokeColor=#d6b656;" vertex="1" parent="1">
          <mxGeometry x="620" y="420" width="120" height="40" as="geometry" />
        </mxCell>
        <mxCell id="-33Kf1fEAtNz3lLiCqJE-11" value="" style="ellipse;whiteSpace=wrap;html=1;fillColor=#fff2cc;strokeColor=#d6b656;" vertex="1" parent="1">
          <mxGeometry x="660" y="380" width="120" height="40" as="geometry" />
        </mxCell>
        <mxCell id="-33Kf1fEAtNz3lLiCqJE-12" value="" style="ellipse;whiteSpace=wrap;html=1;fillColor=#fff2cc;strokeColor=#d6b656;" vertex="1" parent="1">
          <mxGeometry x="660" y="340" width="120" height="40" as="geometry" />
        </mxCell>
        <mxCell id="-33Kf1fEAtNz3lLiCqJE-13" value="" style="endArrow=none;html=1;rounded=0;exitX=1;exitY=0.5;exitDx=0;exitDy=0;" edge="1" parent="1" source="-33Kf1fEAtNz3lLiCqJE-1">
          <mxGeometry width="50" height="50" relative="1" as="geometry">
            <mxPoint x="490" y="320" as="sourcePoint" />
            <mxPoint x="600" y="290" as="targetPoint" />
          </mxGeometry>
        </mxCell>
        <mxCell id="-33Kf1fEAtNz3lLiCqJE-14" value="" style="endArrow=none;html=1;rounded=0;" edge="1" parent="1">
          <mxGeometry width="50" height="50" relative="1" as="geometry">
            <mxPoint x="600" y="440" as="sourcePoint" />
            <mxPoint x="600" y="130" as="targetPoint" />
          </mxGeometry>
        </mxCell>
        <mxCell id="-33Kf1fEAtNz3lLiCqJE-15" value="" style="endArrow=none;html=1;rounded=0;entryX=0;entryY=0.5;entryDx=0;entryDy=0;" edge="1" parent="1" target="-33Kf1fEAtNz3lLiCqJE-10">
          <mxGeometry width="50" height="50" relative="1" as="geometry">
            <mxPoint x="600" y="440" as="sourcePoint" />
            <mxPoint x="580" y="440" as="targetPoint" />
          </mxGeometry>
        </mxCell>
        <mxCell id="-33Kf1fEAtNz3lLiCqJE-17" value="File Server" style="rounded=0;whiteSpace=wrap;html=1;fillColor=#d5e8d4;strokeColor=#82b366;" vertex="1" parent="1">
          <mxGeometry x="40" y="520" width="120" height="40" as="geometry" />
        </mxCell>
        <mxCell id="-33Kf1fEAtNz3lLiCqJE-18" value="" style="ellipse;whiteSpace=wrap;html=1;fillColor=#d5e8d4;strokeColor=#82b366;" vertex="1" parent="1">
          <mxGeometry x="80" y="480" width="120" height="40" as="geometry" />
        </mxCell>
        <mxCell id="-33Kf1fEAtNz3lLiCqJE-19" value="" style="ellipse;whiteSpace=wrap;html=1;fillColor=#d5e8d4;strokeColor=#82b366;" vertex="1" parent="1">
          <mxGeometry x="80" y="440" width="120" height="40" as="geometry" />
        </mxCell>
        <mxCell id="-33Kf1fEAtNz3lLiCqJE-20" value="File Server" style="rounded=0;whiteSpace=wrap;html=1;fillColor=#d5e8d4;strokeColor=#82b366;" vertex="1" parent="1">
          <mxGeometry x="230" y="520" width="120" height="40" as="geometry" />
        </mxCell>
        <mxCell id="-33Kf1fEAtNz3lLiCqJE-21" value="" style="ellipse;whiteSpace=wrap;html=1;fillColor=#d5e8d4;strokeColor=#82b366;" vertex="1" parent="1">
          <mxGeometry x="270" y="480" width="120" height="40" as="geometry" />
        </mxCell>
        <mxCell id="-33Kf1fEAtNz3lLiCqJE-22" value="" style="ellipse;whiteSpace=wrap;html=1;fillColor=#d5e8d4;strokeColor=#82b366;" vertex="1" parent="1">
          <mxGeometry x="270" y="440" width="120" height="40" as="geometry" />
        </mxCell>
        <mxCell id="-33Kf1fEAtNz3lLiCqJE-23" value="File Server" style="rounded=0;whiteSpace=wrap;html=1;fillColor=#d5e8d4;strokeColor=#82b366;" vertex="1" parent="1">
          <mxGeometry x="420" y="520" width="120" height="40" as="geometry" />
        </mxCell>
        <mxCell id="-33Kf1fEAtNz3lLiCqJE-24" value="" style="ellipse;whiteSpace=wrap;html=1;fillColor=#d5e8d4;strokeColor=#82b366;" vertex="1" parent="1">
          <mxGeometry x="460" y="480" width="120" height="40" as="geometry" />
        </mxCell>
        <mxCell id="-33Kf1fEAtNz3lLiCqJE-25" value="" style="ellipse;whiteSpace=wrap;html=1;fillColor=#d5e8d4;strokeColor=#82b366;" vertex="1" parent="1">
          <mxGeometry x="460" y="440" width="120" height="40" as="geometry" />
        </mxCell>
        <mxCell id="-33Kf1fEAtNz3lLiCqJE-26" value="" style="endArrow=none;html=1;rounded=0;entryX=0.5;entryY=1;entryDx=0;entryDy=0;" edge="1" parent="1" target="-33Kf1fEAtNz3lLiCqJE-1">
          <mxGeometry width="50" height="50" relative="1" as="geometry">
            <mxPoint x="330" y="390" as="sourcePoint" />
            <mxPoint x="350" y="330" as="targetPoint" />
            <Array as="points" />
          </mxGeometry>
        </mxCell>
        <mxCell id="-33Kf1fEAtNz3lLiCqJE-27" value="" style="endArrow=none;html=1;rounded=0;exitX=0.5;exitY=0;exitDx=0;exitDy=0;" edge="1" parent="1" source="-33Kf1fEAtNz3lLiCqJE-19">
          <mxGeometry width="50" height="50" relative="1" as="geometry">
            <mxPoint x="260" y="400" as="sourcePoint" />
            <mxPoint x="140" y="390" as="targetPoint" />
          </mxGeometry>
        </mxCell>
        <mxCell id="-33Kf1fEAtNz3lLiCqJE-28" value="" style="endArrow=none;html=1;rounded=0;" edge="1" parent="1">
          <mxGeometry width="50" height="50" relative="1" as="geometry">
            <mxPoint x="520" y="390" as="sourcePoint" />
            <mxPoint x="140" y="390" as="targetPoint" />
          </mxGeometry>
        </mxCell>
        <mxCell id="-33Kf1fEAtNz3lLiCqJE-29" value="" style="endArrow=none;html=1;rounded=0;exitX=0.5;exitY=0;exitDx=0;exitDy=0;" edge="1" parent="1" source="-33Kf1fEAtNz3lLiCqJE-22">
          <mxGeometry width="50" height="50" relative="1" as="geometry">
            <mxPoint x="310" y="450" as="sourcePoint" />
            <mxPoint x="330" y="390" as="targetPoint" />
          </mxGeometry>
        </mxCell>
        <mxCell id="-33Kf1fEAtNz3lLiCqJE-30" value="" style="endArrow=none;html=1;rounded=0;exitX=0.5;exitY=0;exitDx=0;exitDy=0;" edge="1" parent="1" source="-33Kf1fEAtNz3lLiCqJE-25">
          <mxGeometry width="50" height="50" relative="1" as="geometry">
            <mxPoint x="450" y="460" as="sourcePoint" />
            <mxPoint x="520" y="390" as="targetPoint" />
          </mxGeometry>
        </mxCell>
        <mxCell id="-33Kf1fEAtNz3lLiCqJE-31" value="" style="endArrow=none;html=1;rounded=0;entryX=0;entryY=0.5;entryDx=0;entryDy=0;" edge="1" parent="1" target="-33Kf1fEAtNz3lLiCqJE-7">
          <mxGeometry width="50" height="50" relative="1" as="geometry">
            <mxPoint x="600" y="290" as="sourcePoint" />
            <mxPoint x="650" y="240" as="targetPoint" />
          </mxGeometry>
        </mxCell>
        <mxCell id="-33Kf1fEAtNz3lLiCqJE-32" value="" style="endArrow=none;html=1;rounded=0;entryX=0;entryY=0.5;entryDx=0;entryDy=0;" edge="1" parent="1" target="-33Kf1fEAtNz3lLiCqJE-4">
          <mxGeometry width="50" height="50" relative="1" as="geometry">
            <mxPoint x="600" y="130" as="sourcePoint" />
            <mxPoint x="650" y="80" as="targetPoint" />
          </mxGeometry>
        </mxCell>
        <mxCell id="-33Kf1fEAtNz3lLiCqJE-33" value="" style="endArrow=none;html=1;rounded=0;exitX=0;exitY=0;exitDx=0;exitDy=0;entryX=1;entryY=1;entryDx=0;entryDy=0;" edge="1" parent="1" source="-33Kf1fEAtNz3lLiCqJE-1" target="-33Kf1fEAtNz3lLiCqJE-34">
          <mxGeometry width="50" height="50" relative="1" as="geometry">
            <mxPoint x="230" y="220" as="sourcePoint" />
            <mxPoint x="80" y="30" as="targetPoint" />
          </mxGeometry>
        </mxCell>
        <mxCell id="-33Kf1fEAtNz3lLiCqJE-34" value="Global Network" style="rounded=0;whiteSpace=wrap;html=1;fillColor=#f8cecc;strokeColor=#b85450;" vertex="1" parent="1">
          <mxGeometry x="40" y="110" width="120" height="40" as="geometry" />
        </mxCell>
        <mxCell id="-33Kf1fEAtNz3lLiCqJE-35" value="" style="ellipse;whiteSpace=wrap;html=1;fillColor=#f8cecc;strokeColor=#b85450;" vertex="1" parent="1">
          <mxGeometry x="80" y="70" width="120" height="40" as="geometry" />
        </mxCell>
        <mxCell id="-33Kf1fEAtNz3lLiCqJE-36" value="" style="ellipse;whiteSpace=wrap;html=1;fillColor=#f8cecc;strokeColor=#b85450;" vertex="1" parent="1">
          <mxGeometry x="80" y="30" width="120" height="40" as="geometry" />
        </mxCell>
      </root>
    </mxGraphModel>
  </diagram>
</mxfile>
